<svg width="108" height="108" viewBox="0 0 108 108" fill="none" xmlns="http://www.w3.org/2000/svg">
<path d="M20.1446 21.9407H87.6446C88.4331 21.9403 89.2208 21.9903 90.0029 22.0904C89.7378 20.2295 89.0985 18.4415 88.1237 16.8343C87.1489 15.227 85.8588 13.8339 84.331 12.7387C82.8032 11.6436 81.0695 10.8692 79.2343 10.4622C77.3992 10.0553 75.5006 10.0241 73.6531 10.3707L18.1407 19.8482H18.0774C14.5929 20.5145 11.4942 22.486 9.41418 25.36C12.5479 23.131 16.2991 21.9357 20.1446 21.9407V21.9407Z" fill="#5BB77B"/>
<path d="M87.6445 27H20.1445C16.5653 27.0039 13.1338 28.4275 10.6029 30.9584C8.07201 33.4893 6.64844 36.9208 6.64453 40.5V81C6.64844 84.5792 8.07201 88.0107 10.6029 90.5416C13.1338 93.0725 16.5653 94.4961 20.1445 94.5H87.6445C91.2238 94.4961 94.6553 93.0725 97.1862 90.5416C99.7171 88.0107 101.141 84.5792 101.145 81V40.5C101.141 36.9208 99.7171 33.4893 97.1862 30.9584C94.6553 28.4275 91.2238 27.0039 87.6445 27V27ZM77.625 67.5C76.29 67.5 74.9849 67.1041 73.8749 66.3624C72.7649 65.6207 71.8997 64.5665 71.3888 63.3331C70.8779 62.0997 70.7442 60.7425 71.0047 59.4331C71.2651 58.1238 71.908 56.921 72.852 55.977C73.796 55.033 74.9988 54.3901 76.3081 54.1297C77.6175 53.8692 78.9747 54.0029 80.2081 54.5138C81.4415 55.0247 82.4957 55.8899 83.2374 56.9999C83.9791 58.1099 84.375 59.415 84.375 60.75C84.375 62.5402 83.6638 64.2571 82.398 65.523C81.1321 66.7888 79.4152 67.5 77.625 67.5Z" fill="#5BB77B"/>
<path d="M6.75 54.7383V33.75C6.75 29.179 9.28125 21.5156 18.0668 19.8555C25.5234 18.457 32.9062 18.457 32.9062 18.457C32.9062 18.457 37.7578 21.832 33.75 21.832C29.7422 21.832 29.8477 27 33.75 27C37.6523 27 33.75 31.957 33.75 31.957L18.0352 49.7812L6.75 54.7383Z" fill="#5BB77B"/>
<path d="M58.1562 45.1562L45.3125 58.375L58.4375 77.3125C59.375 78.7188 59 80.5938 57.6875 81.5312C56.2812 82.4688 54.4062 82.0938 53.4688 80.7812L41 62.7812L35 68.9688V79C35 80.6875 33.5938 82 32 82C30.3125 82 29 80.6875 29 79V67.75V43C29 41.4062 30.3125 40 32 40C33.5938 40 35 41.4062 35 43V60.3438L39.2188 55.9375L53.8438 40.9375C54.9688 39.8125 56.8438 39.7188 58.0625 40.9375C59.2812 42.0625 59.2812 43.9375 58.1562 45.1562Z" fill="#F4D46A"/>
</svg>
