<svg width="414" height="175" viewBox="0 0 414 175" fill="none" xmlns="http://www.w3.org/2000/svg">
<path d="M29.1562 135.156L16.3125 148.375L29.4375 167.312C30.375 168.719 30 170.594 28.6875 171.531C27.2812 172.469 25.4062 172.094 24.4688 170.781L12 152.781L6 158.969V169C6 170.688 4.59375 172 3 172C1.3125 172 0 170.688 0 169V157.75V133C0 131.406 1.3125 130 3 130C4.59375 130 6 131.406 6 133V150.344L10.2188 145.938L24.8438 130.938C25.9688 129.812 27.8438 129.719 29.0625 130.938C30.2812 132.062 30.2812 133.938 29.1562 135.156ZM36 130H57C58.5938 130 60 131.406 60 133C60 134.688 58.5938 136 57 136H36V148H51C52.5938 148 54 149.406 54 151C54 152.688 52.5938 154 51 154H36V166H57C58.5938 166 60 167.406 60 169C60 170.688 58.5938 172 57 172H36C32.625 172 30 169.375 30 166V151V136C30 132.719 32.625 130 36 130ZM62.0625 130.188C63.375 129.812 64.6875 130.281 65.4375 131.406L81 154.656L96.4688 131.406C97.2188 130.281 98.5312 129.812 99.8438 130.188C101.062 130.562 102 131.688 102 133V169C102 170.688 100.594 172 99 172C97.3125 172 96 170.688 96 169V142.938L83.4375 161.688C82.875 162.531 81.9375 163 81 163C79.9688 163 79.0312 162.531 78.4688 161.688L66 142.938V169C66 170.688 64.5938 172 63 172C61.3125 172 60 170.688 60 169V133C60 131.688 60.8438 130.562 62.0625 130.188ZM122.719 131.875L133.969 158.875L137.719 167.875C138.375 169.375 137.625 171.156 136.125 171.812C134.531 172.469 132.844 171.719 132.188 170.219L129.188 163H110.719L107.719 170.219C107.062 171.719 105.375 172.469 103.781 171.812C102.281 171.156 101.531 169.375 102.188 167.875L105.938 158.875L117.188 131.875C117.656 130.75 118.781 130 120 130C121.125 130 122.25 130.75 122.719 131.875ZM126.75 157L120 140.875L113.25 157H126.75ZM139.969 130.188C141.094 129.812 142.5 130.188 143.25 131.125L168 160.75V133C168 131.406 169.312 130 171 130C172.594 130 174 131.406 174 133V169C174 170.312 173.156 171.438 171.938 171.906C170.812 172.281 169.5 171.906 168.656 170.969L144 141.344V169C144 170.688 142.594 172 141 172C139.312 172 138 170.688 138 169V133C138 131.781 138.75 130.656 139.969 130.188ZM194.719 131.875L205.969 158.875L209.719 167.875C210.375 169.375 209.625 171.156 208.125 171.812C206.531 172.469 204.844 171.719 204.188 170.219L201.188 163H182.719L179.719 170.219C179.062 171.719 177.375 172.469 175.781 171.812C174.281 171.156 173.531 169.375 174.188 167.875L177.938 158.875L189.188 131.875C189.656 130.75 190.781 130 192 130C193.125 130 194.25 130.75 194.719 131.875ZM198.75 157L192 140.875L185.25 157H198.75ZM210 136C210 132.719 212.625 130 216 130H225C236.531 130 246 139.469 246 151C246 162.625 236.531 172 225 172H216C212.625 172 210 169.375 210 166V136ZM225 136H216V166H225C233.25 166 240 159.344 240 151C240 142.75 233.25 136 225 136ZM249 130C250.594 130 252 131.406 252 133V154C252 160.656 257.344 166 264 166C270.562 166 276 160.656 276 154V133C276 131.406 277.312 130 279 130C280.594 130 282 131.406 282 133V154C282 163.938 273.938 172 264 172C254.062 172 246 163.938 246 154V133C246 131.406 247.312 130 249 130ZM285 130H297H309C310.594 130 312 131.406 312 133C312 134.688 310.594 136 309 136H300V166H309C310.594 166 312 167.406 312 169C312 170.688 310.594 172 309 172H285C283.312 172 282 170.688 282 169C282 167.406 283.312 166 285 166H294V136H285C283.312 136 282 134.688 282 133C282 131.406 283.312 130 285 130ZM315 130H330H345C346.594 130 348 131.406 348 133C348 134.688 346.594 136 345 136H333V169C333 170.688 331.594 172 330 172C328.312 172 327 170.688 327 169V136H315C313.312 136 312 134.688 312 133C312 131.406 313.312 130 315 130ZM377.156 135.156L364.312 148.375L377.438 167.312C378.375 168.719 378 170.594 376.688 171.531C375.281 172.469 373.406 172.094 372.469 170.781L360 152.781L354 158.969V169C354 170.688 352.594 172 351 172C349.312 172 348 170.688 348 169V157.75V133C348 131.406 349.312 130 351 130C352.594 130 354 131.406 354 133V150.344L358.219 145.938L372.844 130.938C373.969 129.812 375.844 129.719 377.062 130.938C378.281 132.062 378.281 133.938 377.156 135.156ZM381 130C382.594 130 384 131.406 384 133V154C384 160.656 389.344 166 396 166C402.562 166 408 160.656 408 154V133C408 131.406 409.312 130 411 130C412.594 130 414 131.406 414 133V154C414 163.938 405.938 172 396 172C386.062 172 378 163.938 378 154V133C378 131.406 379.312 130 381 130Z" fill="#5BB77B"/>
<path d="M173.145 21.9407H240.645C241.433 21.9403 242.221 21.9903 243.003 22.0905C242.738 20.2295 242.099 18.4415 241.124 16.8343C240.149 15.2271 238.859 13.8339 237.331 12.7388C235.803 11.6436 234.069 10.8692 232.234 10.4623C230.399 10.0553 228.501 10.0242 226.653 10.3708L171.141 19.8482H171.077C167.593 20.5145 164.494 22.486 162.414 25.36C165.548 23.1311 169.299 21.9357 173.145 21.9407V21.9407Z" fill="#5BB77B"/>
<path d="M240.645 27H173.145C169.565 27.0039 166.134 28.4275 163.603 30.9584C161.072 33.4893 159.648 36.9208 159.645 40.5V81C159.648 84.5792 161.072 88.0107 163.603 90.5416C166.134 93.0725 169.565 94.4961 173.145 94.5H240.645C244.224 94.4961 247.655 93.0725 250.186 90.5416C252.717 88.0107 254.141 84.5792 254.145 81V40.5C254.141 36.9208 252.717 33.4893 250.186 30.9584C247.655 28.4275 244.224 27.0039 240.645 27V27ZM230.625 67.5C229.29 67.5 227.985 67.1041 226.875 66.3624C225.765 65.6207 224.9 64.5665 224.389 63.3331C223.878 62.0997 223.744 60.7425 224.005 59.4331C224.265 58.1238 224.908 56.921 225.852 55.977C226.796 55.033 227.999 54.3901 229.308 54.1297C230.618 53.8692 231.975 54.0029 233.208 54.5138C234.442 55.0247 235.496 55.8899 236.237 56.9999C236.979 58.1099 237.375 59.415 237.375 60.75C237.375 62.5402 236.664 64.2571 235.398 65.523C234.132 66.7888 232.415 67.5 230.625 67.5Z" fill="#5BB77B"/>
<path d="M159.75 54.7383V33.75C159.75 29.179 162.281 21.5156 171.067 19.8555C178.523 18.457 185.906 18.457 185.906 18.457C185.906 18.457 190.758 21.832 186.75 21.832C182.742 21.832 182.848 27 186.75 27C190.652 27 186.75 31.957 186.75 31.957L171.035 49.7812L159.75 54.7383Z" fill="#5BB77B"/>
<path d="M211.156 45.1562L198.312 58.375L211.438 77.3125C212.375 78.7188 212 80.5938 210.688 81.5312C209.281 82.4688 207.406 82.0938 206.469 80.7812L194 62.7812L188 68.9688V79C188 80.6875 186.594 82 185 82C183.312 82 182 80.6875 182 79V67.75V43C182 41.4062 183.312 40 185 40C186.594 40 188 41.4062 188 43V60.3438L192.219 55.9375L206.844 40.9375C207.969 39.8125 209.844 39.7188 211.062 40.9375C212.281 42.0625 212.281 43.9375 211.156 45.1562Z" fill="#F4D46A"/>
</svg>
